<svg width="64" height="64" viewBox="0 0 64 64" fill="none" xmlns="http://www.w3.org/2000/svg">
  <defs>
    <linearGradient id="g" x1="10" y1="8" x2="54" y2="56" gradientUnits="userSpaceOnUse">
      <stop offset="0" stop-color="#5B8CFF"/>
      <stop offset="0.55" stop-color="#8B5CF6"/>
      <stop offset="1" stop-color="#E879F9"/>
    </linearGradient>
    <linearGradient id="g2" x1="14" y1="16" x2="50" y2="50" gradientUnits="userSpaceOnUse">
      <stop offset="0" stop-color="#FFFFFF" stop-opacity="0.95"/>
      <stop offset="1" stop-color="#FFFFFF" stop-opacity="0.7"/>
    </linearGradient>
  </defs>
  <rect x="2" y="2" width="60" height="60" rx="16" fill="url(#g)"/>
  <path d="M18 17.5C18 16.6716 18.6716 16 19.5 16H30.5C31.3284 16 32 16.6716 32 17.5V46.5C32 47.3284 31.3284 48 30.5 48H19.5C18.6716 48 18 47.3284 18 46.5V17.5Z" fill="url(#g2)"/>
  <path d="M35 16H44.5C47.5376 16 50 18.4624 50 21.5V24.5C50 27.5376 47.5376 30 44.5 30H35V16Z" fill="white" fill-opacity="0.9"/>
  <path d="M35 34H47C48.1046 34 49 34.8954 49 36V46C49 47.1046 48.1046 48 47 48H35V34Z" fill="white" fill-opacity="0.88"/>
  <circle cx="23.5" cy="22.5" r="1.8" fill="#5B8CFF"/>
  <circle cx="23.5" cy="29.5" r="1.8" fill="#8B5CF6"/>
  <circle cx="23.5" cy="36.5" r="1.8" fill="#E879F9"/>
</svg>
